# xmcd
#
# Track frame offsets: 
#        150
#        18052
#        27137
#        41462
#        55965
#        73745
#        87137
#        105010
#        120877
#        134562
#        154947
#        167747
#        181235
#        193697
#        211910
#        224537
#
# Disc length: 3136 seconds
#
# Revision: 0
# Processed by: cddbd v1.5.2PL0 Copyright (c) Steve Scherf et al.
# Submitted via: ExactAudioCopy v1.3
#
DISCID=cf0c3e10
DTITLE=Holiday Bluegrass Jam - Wherever You Go
DYEAR=1995
DGENRE=Bluegrass
TTITLE0=Wherever You Go
TTITLE1=Cherokee Shuffle
TTITLE2=Black Smoke
TTITLE3=Old Memories
TTITLE4=Doing My Time
TTITLE5=All The Way Down The Road
TTITLE6=Old House Rag
TTITLE7=Oldtimer's Waltz
TTITLE8=8th Of January
TTITLE9=Walls Of Time
TTITLE10=Want To Go To Heaven
TTITLE11=Foggy Mt. Special Special
TTITLE12=Summer Dream
TTITLE13=Late In The Day
TTITLE14=Seneca Square Dance
TTITLE15=Summer's End
EXTD=
EXTT0=
EXTT1=
EXTT2=
EXTT3=
EXTT4=
EXTT5=
EXTT6=
EXTT7=
EXTT8=
EXTT9=
EXTT10=
EXTT11=
EXTT12=
EXTT13=
EXTT14=
EXTT15=
PLAYORDER=
